<svg xmlns="http://www.w3.org/2000/svg" width="24" height="24" viewBox="0 0 24 24" fill="#fff">
  <path d="M8 2h8l2 3h3q1.242 0 2.12.895T24 8.032v10.984q0 1.242-.88 2.113T21 22H3q-1.242 0-2.12-.88T0 19V8.016q0-1.242.88-2.13T3 5h3zm4 6q1.016 0 1.94.398t1.595 1.066 1.066 1.594.4 1.94-.4 1.942-1.065 1.594T13.94 17.6t-1.94.398-1.94-.398-1.595-1.066T7.4 14.94 7 13t.4-1.942 1.065-1.594 1.594-1.066T12 8zm0 2q-1.242 0-2.12.88T9 13t.88 2.12T12 16t2.12-.88T15 13t-.88-2.12T12 10zm4.93-3l-1.96-3h-5.9l-2 3H3q-.413 0-.706.297T2 8.017V19q0 .414.294.707T3 20h18q.423 0 .712-.285t.29-.7V8.033q0-.422-.298-.727T21 7h-4.07z"/>
</svg>
