<svg xmlns="http://www.w3.org/2000/svg" width="24" height="24" viewBox="0 0 24 24" fill="#fff"><path d="M8.5 11C9.88 11 11 9.88 11 8.5S9.88 6 8.5 6 6 7.12 6 8.5 7.12 11 8.5 11zm0-3c.275 0 .5.225.5.5s-.225.5-.5.5-.5-.225-.5-.5.225-.5.5-.5z"/><path d="M22 15V5c0-1.656-1.344-3-3-3H5C3.344 2 2 3.344 2 5v14c0 1.65 1.338 2.994 2.988 3H19c1.656 0 3-1.344 3-3v-4zM4 5c0-.55.45-1 1-1h14c.55 0 1 .45 1 1v7.587l-3.294-3.294c-.387-.387-1.025-.387-1.413 0L4.65 19.937C4.267 19.793 4 19.43 4 19V5zm15 15H7.412L16 11.413l4 4V19c0 .55-.45 1-1 1z"/></svg>