<svg xmlns="http://www.w3.org/2000/svg" viewBox="0 0 512 512">
  <g fill="#555">
    <path stroke="#555" stroke-width="7px" d="M167.724 308.966h-8.828V220.69c0-4.875-3.953-8.828-8.828-8.828s-8.828 3.953-8.828 8.828v88.276H98.854l15.762-86.697c.872-4.798-2.31-9.392-7.106-10.265-4.794-.875-9.393 2.31-10.264 7.106l-17.654 97.104c-.468 2.575.23 5.226 1.908 7.235 1.677 2.008 4.16 3.17 6.777 3.17h52.966v17.655c0 4.875 3.953 8.828 8.828 8.828 4.876 0 8.83-3.953 8.83-8.828V326.62h8.827c4.875 0 8.828-3.953 8.828-8.828s-3.957-8.826-8.83-8.826zM423.724 308.966h-8.828V220.69c0-4.875-3.953-8.828-8.828-8.828s-8.828 3.953-8.828 8.828v88.276h-42.388l15.763-86.697c.872-4.798-2.31-9.394-7.106-10.265-4.802-.875-9.394 2.31-10.265 7.106l-17.655 97.104c-.468 2.575.23 5.226 1.908 7.235 1.677 2.008 4.16 3.17 6.777 3.17h52.966v17.655c0 4.875 3.954 8.828 8.83 8.828s8.827-3.953 8.827-8.828V326.62h8.828c4.875 0 8.828-3.953 8.828-8.828s-3.955-8.826-8.83-8.826zM308.964 353.103c-1.35 0-2.7-.31-3.948-.93l-13.707-6.855-13.708 6.854c-2.487 1.242-5.41 1.242-7.896 0L256 345.318l-13.708 6.854c-2.487 1.242-5.41 1.242-7.896 0l-13.707-6.854-13.708 6.854c-2.74 1.368-5.986 1.223-8.59-.386-2.6-1.61-4.185-4.45-4.185-7.51v-70.62c0-34.072 27.72-61.793 61.793-61.793s61.793 27.72 61.793 61.793v70.62c0 3.06-1.585 5.902-4.186 7.51-1.42.875-3.03 1.317-4.643 1.317zM256 326.62c1.352 0 2.704.31 3.947.932l13.707 6.854 13.707-6.854c2.488-1.242 5.41-1.242 7.897 0l4.88 2.44v-56.337c0-24.338-19.8-44.138-44.138-44.138-24.34 0-44.14 19.8-44.14 44.138v56.338l4.88-2.44c2.486-1.242 5.408-1.242 7.895 0l13.707 6.854 13.707-6.854c1.244-.622 2.597-.932 3.95-.932z"/>
    <path d="M238.344 282.483c-4.875 0-8.828-3.953-8.828-8.828v-8.828c0-4.875 3.953-8.828 8.828-8.828s8.828 3.952 8.828 8.827v8.828c0 4.875-3.953 8.828-8.828 8.828zM273.654 282.483c-4.875 0-8.828-3.953-8.828-8.828v-8.828c0-4.875 3.953-8.828 8.828-8.828s8.828 3.952 8.828 8.827v8.828c0 4.875-3.953 8.828-8.828 8.828z"/>
  </g>
</svg>